#!OML:ASF F:\VICON\USERDATA\INSTALL\rory3\rory3.ASF
:FULLY-SPECIFIED
:DEGREES
401
root -0.605351 17.0982 44.9552 1.43836 -6.62157 -4.39598
lowerback 4.35089 1.85308 4.68841
upperback 1.27872 2.70301 2.77061
thorax -1.03917 1.34316 0.085465
lowerneck -15.5502 -2.57699 -8.99051
upperneck 23.8683 -2.51037 4.96401
head 10.3893 -1.38653 2.94739
rclavicle 1.81391e-014 1.03368e-014
rhumerus -19.4509 -1.24713 -78.5819
rradius 43.649
rwrist -2.55437
rhand -15.1495 18.5262
rfingers 7.12502
rthumb 11.0206 -11.1645
lclavicle 1.81391e-014 1.03368e-014
lhumerus -38.7754 14.3541 86.5657
lradius 19.4324
lwrist -23.8126
lhand -15.0906 24.4162
lfingers 7.12502
lthumb 11.0774 54.1039
rfemur 11.7566 6.72647 29.3233
rtibia 27.8708
rfoot -17.4327 -7.54585
rtoes -19.0798
lfemur -25.5934 -2.2574 -13.0069
ltibia 14.9093
lfoot -0.163747 7.44362
ltoes -10.3702
402
root -0.58032 17.1061 45.1856 1.42784 -6.54448 -3.97122
lowerback 4.32113 1.83771 4.39606
upperback 0.925148 2.684 2.60756
thorax -1.39314 1.32485 0.0744772
lowerneck -15.1098 -2.48634 -8.93889
upperneck 23.9525 -2.47849 5.10518
head 10.332 -1.35728 2.99648
rclavicle 1.61016e-014 -1.55052e-014
rhumerus -20.3152 -1.62263 -78.6451
rradius 43.6293
rwrist -2.39957
rhand -15.3448 18.8528
rfingers 7.12502
rthumb 10.8322 -10.8479
lclavicle 1.61016e-014 -1.55052e-014
lhumerus -39.4667 14.6923 85.919
lradius 18.6318
lwrist -25.9787
lhand -17.3985 22.721
lfingers 7.12502
lthumb 8.85084 52.5154
rfemur 11.8319 6.66229 28.6836
rtibia 28.7731
rfoot -16.47 -6.87793
rtoes -19.7558
lfemur -25.8845 -2.03055 -13.818
ltibia 16.4353
lfoot 0.297139 6.66542
ltoes -11.8802
403
root -0.557568 17.1237 45.399 1.31437 -6.4642 -3.61669
lowerback 4.42673 1.82172 4.09442
upperback 0.839355 2.6591 2.54085
thorax -1.55195 1.31039 0.169069
lowerneck -15.2525 -2.53202 -9.0842
upperneck 24.1424 -2.54187 5.28041
head 10.438 -1.38038 3.07929
rclavicle 1.50082e-014 -1.19271e-014
rhumerus -20.5645 -2.12445 -78.6199
rradius 43.2679
rwrist -2.17982
rhand -15.4508 19.1451
rfingers 7.12502
rthumb 10.7299 -10.5609
lclavicle 1.50082e-014 -1.19271e-014
lhumerus -39.2197 14.4577 86.1456
lradius 19.6138
lwrist -21.3824
lhand -12.6983 26.0423
lfingers 7.12502
lthumb 13.384 55.5924
rfemur 11.8426 6.72049 28.221
rtibia 29.9678
rfoot -15.484 -6.26972
rtoes -20.2926
lfemur -26.0709 -1.97056 -14.4047
ltibia 17.7378
lfoot 0.430392 5.71832
ltoes -9.758
404
root -0.537416 17.1264 45.608 1.107 -6.22801 -3.34159
lowerback 4.51868 1.72311 3.80629
upperback 0.878279 2.51819 2.52859
thorax -1.57889 1.24154 0.32174
lowerneck -15.3459 -2.52025 -9.1292
upperneck 24.4695 -2.49327 5.20934
head 10.5722 -1.37445 3.07406
rclavicle 7.85199e-015 -5.56597e-015
rhumerus -20.8731 -2.53597 -78.5924
rradius 43.1598
rwrist -1.92509
rhand -15.6027 19.1171
rfingers 7.12502
rthumb 10.5834 -10.5965
lclavicle 7.85199e-015 -5.56597e-015
lhumerus -38.9554 14.747 85.9923
lradius 19.6828
lwrist -20.5021
lhand -11.409 27.1238
lfingers 7.12502
lthumb 14.6265 56.588
rfemur 11.7992 6.70688 27.9299
rtibia 31.435
rfoot -14.2169 -5.87657
rtoes -20.9972
lfemur -26.0405 -2.00864 -14.905
ltibia 18.9241
lfoot 0.659928 3.73567
ltoes -5.97692
405
root -0.515607 17.1211 45.8449 0.969517 -5.87311 -2.56674
lowerback 4.4172 1.67528 3.22271
upperback 0.674229 2.42589 2.25508
thorax -1.74639 1.19497 0.370292
lowerneck -15.0143 -2.54215 -9.1886
upperneck 24.8897 -2.5636 5.25438
head 10.6696 -1.4173 3.09991
rclavicle -1.91827e-014 -2.14687e-014
rhumerus -21.8095 -3.40024 -78.6044
rradius 43.2299
rwrist -1.50546
rhand -15.6736 18.6339
rfingers 7.12502
rthumb 10.515 -11.0831
lclavicle -1.91827e-014 -2.14687e-014
lhumerus -39.2356 14.8268 85.557
lradius 19.3383
lwrist -21.304
lhand -11.7614 26.9824
lfingers 7.12502
lthumb 14.2869 56.471
rfemur 11.6308 6.23539 26.8633
rtibia 33.0805
rfoot -12.6318 -5.16577
rtoes -21.1916
lfemur -25.8348 -1.96314 -16.0932
ltibia 20.0657
lfoot 0.632472 1.94284
ltoes -4.59588
406
root -0.497239 17.1308 46.0847 0.721884 -5.66284 -1.99569
lowerback 4.36601 1.63996 2.76483
upperback 0.614461 2.35395 2.06602
thorax -1.79075 1.161 0.435974
lowerneck -14.7315 -2.63814 -9.58743
upperneck 24.6887 -2.78489 5.87575
head 10.5726 -1.48384 3.36061
rclavicle -1.85367e-014 -2.54444e-014
rhumerus -22.7827 -4.0043 -78.6044
rradius 43.3834
rwrist -1.58161
rhand -15.7216 18.3576
rfingers 7.12502
rthumb 10.4688 -11.3617
lclavicle -1.85367e-014 -2.54444e-014
lhumerus -39.2927 15.2436 84.9294
lradius 18.7862
lwrist -22.635
lhand -12.2116 26.4729
lfingers 7.12502
lthumb 13.8531 55.9915
rfemur 11.4046 5.80679 25.9745
rtibia 34.937
rfoot -10.7395 -4.28477
rtoes -19.8865
lfemur -25.361 -1.98341 -16.9375
ltibia 20.9708
lfoot 0.637209 1.40888
ltoes -5.10801
